<?xml version="1.0" encoding="UTF-8"?>
<svg id="TEXTO" xmlns="http://www.w3.org/2000/svg" viewBox="0 0 875.16 241.47">
  <defs>
    <style>
      .cls-1 {
        fill: #97b9a3;
      }
    </style>
  </defs>
  <path class="cls-1" d="M263.23,99.56s-20.86-1.11-20.86,19.3l11.89-1.08c0-14.9,6.82-15.96,8.97-15.96,7.5,0,7.5,11.67,7.5,11.67v4.99c-8.58,1.16-26.74,4.73-30,14.51-3,9,4.07,17.18,15.57,15.73,4.66-.59,10.17-2.2,14.43-4.95l2.69,4.22h9.31v-34.5c0-9-10.5-13.93-19.5-13.93ZM270.73,138.18c-1.95,3.88-5.14,6-8.8,7.02-4.64,1.29-9.92-3.52-9.92-8.33,0-10.39,12.87-14.94,18.72-16.12v17.43Z"/>
  <path class="cls-1" d="M386.08,99.56s-20.86-1.11-20.86,19.3l11.89-1.08c0-14.9,6.82-15.96,8.97-15.96,7.5,0,7.5,11.67,7.5,11.67v4.99c-8.58,1.16-26.74,4.73-30,14.51-3,9,4.07,17.18,15.57,15.73,4.66-.59,10.17-2.2,14.43-4.95l2.69,4.22h9.31v-34.5c0-9-10.5-13.93-19.5-13.93ZM393.58,138.18c-1.95,3.88-5.14,6-8.8,7.02-4.64,1.29-9.92-3.52-9.92-8.33,0-10.39,12.87-14.94,18.72-16.12v17.43Z"/>
  <path class="cls-1" d="M737.56,99.56s-20.86-1.11-20.86,19.3l11.89-1.08c0-14.9,6.82-15.96,8.97-15.96,7.5,0,7.5,11.67,7.5,11.67v4.99c-8.58,1.16-26.74,4.73-30,14.51-3,9,4.07,17.18,15.57,15.73,4.66-.59,10.17-2.2,14.43-4.95l2.69,4.22h9.31v-34.5c0-9-10.5-13.93-19.5-13.93ZM745.06,138.18c-1.95,3.88-5.14,6-8.8,7.02-4.64,1.29-9.92-3.52-9.92-8.33,0-10.39,12.87-14.94,18.72-16.12v17.43Z"/>
  <path class="cls-1" d="M329.57,118.41l-11.88-1.08c0-14.9-8.98-15.51-8.98-15.51-.07,0-.17,36.78-.21,46.31h-12.02v-35.09c0-6.48,0-13.5,11.87-13.5,0,0,21.22-.12,21.22,18.87Z"/>
  <path class="cls-1" d="M524.36,118.41l-11.88-1.08c0-14.9-8.98-15.51-8.98-15.51-.07,0-.17,36.78-.21,46.31h-12.02v-35.09c0-6.48,0-13.5,11.87-13.5,0,0,21.22-.12,21.22,18.87Z"/>
  <path class="cls-1" d="M460.43,146.1c-8.75,0-8.11-10.63-8.11-11.62v-26.8c0-.99-.64-11.62,8.11-11.62,7.79,0,8.39,7.79,8.39,14.62h12c0-17.88-21-16.89-21-16.89-9.56,0-19.5,4.89-19.5,13.89v26.8c0,9,9.94,13.89,19.5,13.89,0,0,21,.99,21-16.89h-12c0,6.83-.6,14.62-8.39,14.62Z"/>
  <g>
    <polygon class="cls-1" points="340.73 99.98 352.73 101.52 352.73 147.98 340.73 147.98 340.73 99.98"/>
    <polygon class="cls-1" points="352.73 83.48 340.73 83.48 340.73 93.98 352.73 91.66 352.73 83.48"/>
  </g>
  <g>
    <polygon class="cls-1" points="533.18 99.98 545.18 101.52 545.18 147.98 533.18 147.98 533.18 99.98"/>
    <polygon class="cls-1" points="545.18 83.48 533.18 83.48 533.18 93.98 545.18 91.66 545.18 83.48"/>
  </g>
  <g>
    <polygon class="cls-1" points="640.67 99.98 652.67 101.52 652.67 147.98 640.67 147.98 640.67 99.98"/>
    <polygon class="cls-1" points="652.67 83.48 640.67 83.48 640.67 93.98 652.67 91.66 652.67 83.48"/>
  </g>
  <path class="cls-1" d="M597.27,133.68c-2.89-12.04-18.92-11.22-25.74-17.94-5.82-5.74-1.44-15.63,6.74-13.41,4.9,1.33,4.79,6.39,2.61,11.7l11.84,1.71c0-12.46-9.56-15.88-17.73-15.88-7.92,0-15.42,5.28-14,12.88,1.92,10.31,17.11,13.63,22.49,19.01,4.5,4.5.76,16.87-8.09,15.24-4.08-.75-10.91-5.49-8.38-15.72l-12-1.25c-.14,11.87,2.75,19.47,21.54,19.47,13.86,0,23.45-4.37,20.71-15.82Z"/>
  <g>
    <path class="cls-1" d="M620.56,136.05v-49.57s-11.37-3.15-12-3c0,0,0,52.5,0,52.5,0,6.63,5.37,12,12,12h0s10.5,0,10.5,0v-3s-10.44,0-10.5-8.93Z"/>
    <polygon class="cls-1" points="629.56 104.38 599.56 103.38 599.56 101.11 629.56 101.11 629.56 104.38"/>
  </g>
  <path class="cls-1" d="M683.77,99.98c-9,0-19.5,4.5-19.5,13.5v34.5h12v-34.5s-.06-11.15,8.25-11.23c8.8-.08,8.25,11.23,8.25,11.23v34.5h12v-34.5c0-9-10.43-13.5-21-13.5Z"/>
  <path class="cls-1" d="M127.01,160.23h96.64c4.92,0,8.91-3.99,8.91-8.91v-61.18c0-4.92-3.99-8.91-8.91-8.91h-96.64c-4.92,0-8.91,3.99-8.91,8.91v61.18c0,4.92,3.99,8.91,8.91,8.91ZM150.3,115.77c9.64-1.57,13.54,6.06,18.86,4.84,3.83-.87,5.59-10.93,9.81-17.59,2.35-3.73,7.7-9.53,19.33-9.53,17.01,0,20.47,10.94,21,15,.88,6.67.59,30.82,1,39.5h-12.25c-.11-5.99-.25-27.6-.75-35-.84-12.41-15.94-16.01-21-1.5-3.4,9.75-8.23,21.28-18.17,19.5-7.63-1.38-10.33-10.5-17.83-10.5-7.98,0-6.43,19.52-6.43,27.5h-14.7c1.07-9.7,4.24-29.47,21.13-32.22Z"/>
</svg>