<?xml version="1.0" encoding="UTF-8"?>
<svg id="TEXTO" xmlns="http://www.w3.org/2000/svg" viewBox="0 0 546.65 311.35">
  <defs>
    <style>
      .cls-1 {
        fill: #1a2c42;
      }
    </style>
  </defs>
  <path class="cls-1" d="M139.96,157.99h96.64c4.92,0,8.91-3.99,8.91-8.91v-61.18c0-4.92-3.99-8.91-8.91-8.91h-96.64c-4.92,0-8.91,3.99-8.91,8.91v61.18c0,4.92,3.99,8.91,8.91,8.91ZM163.26,113.53c9.64-1.57,13.54,6.06,18.86,4.84,3.83-.87,5.59-10.93,9.81-17.59,2.35-3.73,7.7-9.53,19.33-9.53,17.01,0,20.47,10.94,21,15,.88,6.67.59,30.82,1,39.5h-12.25c-.11-5.99-.25-27.6-.75-35-.84-12.41-15.94-16.01-21-1.5-3.4,9.75-8.23,21.28-18.17,19.5-7.63-1.38-10.33-10.5-17.83-10.5-7.98,0-6.43,19.52-6.43,27.5h-14.7c1.07-9.7,4.24-29.47,21.13-32.22Z"/>
  <path class="cls-1" d="M269.31,146.48c4.66-.59,10.17-2.2,14.43-4.95l2.69,4.22h9.31v-34.5c0-9-10.5-13.93-19.5-13.93,0,0-20.86-1.11-20.86,19.3l11.89-1.08c0-14.9,6.82-15.96,8.97-15.96,7.5,0,7.5,11.67,7.5,11.67v4.99c-8.58,1.16-26.74,4.73-30,14.51-3,9,4.07,17.18,15.57,15.73ZM283.74,118.5v17.43c-1.95,3.88-5.14,6-8.8,7.02-4.64,1.29-9.92-3.52-9.92-8.33,0-10.39,12.87-14.94,18.72-16.12Z"/>
  <path class="cls-1" d="M392.16,146.48c4.66-.59,10.17-2.2,14.43-4.95l2.69,4.22h9.31v-34.5c0-9-10.5-13.93-19.5-13.93,0,0-20.86-1.11-20.86,19.3l11.89-1.08c0-14.9,6.82-15.96,8.97-15.96,7.5,0,7.5,11.67,7.5,11.67v4.99c-8.58,1.16-26.74,4.73-30,14.51-3,9,4.07,17.18,15.57,15.73ZM406.59,118.5v17.43c-1.95,3.88-5.14,6-8.8,7.02-4.64,1.29-9.92-3.52-9.92-8.33,0-10.39,12.87-14.94,18.72-16.12Z"/>
  <path class="cls-1" d="M321.36,97.3c-11.87,0-11.87,7.02-11.87,13.5v35.09h12.02c.04-9.53.14-46.31.21-46.31,0,0,8.98.61,8.98,15.51l11.88,1.08c0-18.99-21.22-18.87-21.22-18.87Z"/>
  <polygon class="cls-1" points="365.74 99.28 353.74 97.74 353.74 145.74 365.74 145.74 365.74 99.28"/>
  <polygon class="cls-1" points="365.74 81.24 353.74 81.24 353.74 91.74 365.74 89.42 365.74 81.24"/>
  <path class="cls-1" d="M412.7,182.42s-20.86-1.11-20.86,19.3l11.89-1.08c0-14.9,6.82-15.96,8.97-15.96,7.5,0,7.5,11.67,7.5,11.67v4.99c-8.58,1.16-26.74,4.73-30,14.51-3,9,4.07,17.18,15.57,15.73,4.66-.59,10.17-2.2,14.43-4.95l2.69,4.22h9.31v-34.5c0-9-10.5-13.93-19.5-13.93ZM420.2,221.04c-1.95,3.88-5.14,6-8.8,7.02-4.64,1.29-9.92-3.52-9.92-8.33,0-10.39,12.87-14.94,18.72-16.12v17.43Z"/>
  <path class="cls-1" d="M177.27,182.41c-11.87,0-11.87,7.02-11.87,13.5v35.09h12.02c.04-9.53.14-46.31.21-46.31,0,0,8.98.61,8.98,15.51l11.88,1.08c0-18.99-21.22-18.87-21.22-18.87Z"/>
  <path class="cls-1" d="M134.56,178.92c7.79,0,8.39,7.79,8.39,14.62h12c0-17.88-21-16.89-21-16.89-9.56,0-19.5,4.89-19.5,13.89v26.8c0,9,9.94,13.89,19.5,13.89,0,0,21,.99,21-16.89h-12c0,6.83-.6,14.62-8.39,14.62-8.75,0-8.11-10.63-8.11-11.62v-26.8c0-.99-.64-11.62,8.11-11.62Z"/>
  <polygon class="cls-1" points="207.31 230.85 219.31 230.85 219.31 184.39 207.31 182.85 207.31 230.85"/>
  <polygon class="cls-1" points="207.31 176.85 219.31 174.53 219.31 166.35 207.31 166.35 207.31 176.85"/>
  <polygon class="cls-1" points="315.8 230.85 327.8 230.85 327.8 184.39 315.8 182.85 315.8 230.85"/>
  <polygon class="cls-1" points="315.8 176.85 327.8 174.53 327.8 166.35 315.8 166.35 315.8 176.85"/>
  <path class="cls-1" d="M245.66,198.6c-5.82-5.74-1.44-15.63,6.74-13.41,4.9,1.33,4.79,6.39,2.61,11.7l11.84,1.71c0-12.46-9.56-15.88-17.73-15.88-7.92,0-15.42,5.28-14,12.88,1.92,10.31,17.11,13.63,22.49,19.01,4.5,4.5.76,16.87-8.09,15.24-4.08-.75-10.91-5.49-8.38-15.72l-12-1.25c-.14,11.87,2.75,19.47,21.54,19.47,13.86,0,23.45-4.37,20.71-15.82-2.89-12.04-18.92-11.22-25.74-17.94Z"/>
  <path class="cls-1" d="M295.7,218.92v-31.97s9,.3,9,.3v-3.27h-9v-14.62s-11.36-3.15-12-3v17.62h-9v2.27l9,.3c0,15.29,0,32.3,0,32.3,0,6.63,5.37,12,12,12h10.5v-3s-10.44,0-10.5-8.93Z"/>
  <path class="cls-1" d="M358.9,182.85c-9,0-19.5,4.5-19.5,13.5v34.5h12v-34.5s-.06-11.15,8.25-11.23c8.8-.08,8.25,11.23,8.25,11.23v34.5h12v-34.5c0-9-10.43-13.5-21-13.5Z"/>
</svg>