<?xml version="1.0" encoding="UTF-8"?>
<svg id="TEXTO" xmlns="http://www.w3.org/2000/svg" viewBox="0 0 343.36 236.99">
  <defs>
    <style>
      .cls-1 {
        fill: #d5b038;
      }
    </style>
  </defs>
  <path class="cls-1" d="M123.36,157.99h96.64c4.92,0,8.91-3.99,8.91-8.91v-61.18c0-4.92-3.99-8.91-8.91-8.91h-96.64c-4.92,0-8.91,3.99-8.91,8.91v61.18c0,4.92,3.99,8.91,8.91,8.91ZM146.66,113.53c9.64-1.57,13.54,6.06,18.86,4.84,3.83-.87,5.59-10.93,9.81-17.59,2.35-3.73,7.7-9.53,19.33-9.53,17.01,0,20.47,10.94,21,15,.88,6.67.59,30.82,1,39.5h-12.25c-.11-5.99-.25-27.6-.75-35-.84-12.41-15.94-16.01-21-1.5-3.4,9.75-8.23,21.28-18.17,19.5-7.63-1.38-10.33-10.5-17.83-10.5-7.98,0-6.43,19.52-6.43,27.5h-14.7c1.07-9.7,4.24-29.47,21.13-32.22Z"/>
</svg>